<svg width="97" height="97" viewBox="0 0 97 97" fill="none" xmlns="http://www.w3.org/2000/svg">
<path d="M20.2658 66.0264C22.5118 62.1213 27.6753 56.8289 33.2804 53.0851C36.0789 51.2158 38.9592 49.7521 41.612 49.0356C44.27 48.3177 46.6326 48.3666 48.4661 49.4211C50.2997 50.4757 51.53 52.4932 52.2461 55.1518C52.9607 57.805 53.1439 61.0307 52.9355 64.3896C52.5181 71.1171 50.5401 78.2416 48.294 82.1467C43.8425 89.8865 33.9596 92.5522 26.2198 88.1007C18.48 83.6492 15.8143 73.7662 20.2658 66.0264Z" fill="#B0E78E" stroke="#9FD77C"/>
<path d="M32.3181 56.5905C35.1883 51.6003 32.9703 64.8171 37.9605 67.6872C42.9507 70.5573 53.2595 61.9939 50.3894 66.9841C47.5193 71.9744 41.1472 73.6931 36.157 70.823C31.1667 67.9528 29.448 61.5808 32.3181 56.5905Z" fill="#D7F9C2"/>
<path d="M77.8109 30.8259C75.5649 34.7311 70.4015 40.0234 64.7963 43.7672C61.9978 45.6365 59.1175 47.1002 56.4648 47.8167C53.8067 48.5346 51.4441 48.4858 49.6106 47.4312C47.777 46.3767 46.5468 44.3591 45.8307 41.7006C45.116 39.0473 44.9328 35.8216 45.1412 32.4627C45.5586 25.7352 47.5367 18.6108 49.7827 14.7056C54.2342 6.96583 64.1172 4.30015 71.8569 8.75164C79.5967 13.2031 82.2624 23.0861 77.8109 30.8259Z" fill="#B0E78E" stroke="#9FD77C"/>
<path d="M65.7586 40.2618C62.8885 45.252 65.1064 32.0353 60.1162 29.1652C55.126 26.2951 44.8172 34.8584 47.6873 29.8682C50.5574 24.878 56.9295 23.1593 61.9197 26.0294C66.91 28.8995 68.6287 35.2715 65.7586 40.2618Z" fill="#D7F9C2"/>
<path d="M30.9786 20.1366C34.8838 22.3826 40.1761 27.5461 43.92 33.1512C45.7892 35.9497 47.253 38.83 47.9694 41.4828C48.6873 44.1408 48.6385 46.5034 47.5839 48.3369C46.5294 50.1705 44.5118 51.4007 41.8533 52.1169C39.2001 52.8315 35.9743 53.0147 32.6154 52.8063C25.8879 52.3889 18.7635 50.4109 14.8583 48.1648C7.11854 43.7133 4.45286 33.8303 8.90435 26.0906C13.3558 18.3508 23.2388 15.6851 30.9786 20.1366Z" fill="#B0E78E" stroke="#9FD77C"/>
<path d="M40.4145 32.1889C45.4047 35.0591 32.188 32.8411 29.3179 37.8313C26.4478 42.8215 35.0111 53.1303 30.0209 50.2602C25.0307 47.3901 23.312 41.018 26.1821 36.0278C29.0522 31.0375 35.4243 29.3188 40.4145 32.1889Z" fill="#D7F9C2"/>
<path d="M65.4231 75.857C61.518 73.6109 56.2256 68.4475 52.4818 62.8424C50.6125 60.0439 49.1488 57.1636 48.4323 54.5108C47.7144 51.8528 47.7633 49.4902 48.8178 47.6567C49.8724 45.8231 51.8899 44.5928 54.5485 43.8767C57.2017 43.1621 60.4274 42.9789 63.7863 43.1873C70.5138 43.6047 77.6383 45.5827 81.5434 47.8288C89.2832 52.2803 91.9489 62.1632 87.4974 69.903C83.0459 77.6428 73.1629 80.3085 65.4231 75.857Z" fill="#B0E78E" stroke="#9FD77C"/>
<path d="M55.9872 63.8046C50.997 60.9345 64.2138 63.1525 67.0839 58.1623C69.954 53.172 61.3906 42.8633 66.3808 45.7334C71.3711 48.6035 73.0898 54.9756 70.2197 59.9658C67.3495 64.956 60.9775 66.6747 55.9872 63.8046Z" fill="#D7F9C2"/>
</svg>
