<svg width="94" height="84" viewBox="0 0 94 84" fill="none" xmlns="http://www.w3.org/2000/svg">
<path d="M16.8649 33.9363C21.3085 33.1948 28.6752 33.8283 35.1252 35.7857C38.3456 36.7629 41.3044 38.0607 43.5412 39.6566C45.7825 41.2557 47.2437 43.1129 47.5918 45.1992C47.9399 47.2856 47.161 49.5166 45.5603 51.7568C43.9629 53.9925 41.5857 56.1806 38.8571 58.1506C33.3921 62.0961 26.6302 65.0872 22.1867 65.8287C13.3798 67.2982 5.04916 61.3502 3.57961 52.5434C2.11005 43.7365 8.05809 35.4059 16.8649 33.9363Z" fill="#B0E78E" stroke="#9FD77C"/>
<path d="M31.8051 37.2659C37.4833 36.3184 25.86 42.9892 26.8075 48.6674C27.755 54.3457 40.9145 56.8811 35.2363 57.8286C29.5581 58.7761 24.1869 54.9411 23.2394 49.2628C22.2919 43.5846 26.1269 38.2134 31.8051 37.2659Z" fill="#D7F9C2"/>
<path d="M62.8628 74.8069C58.9505 72.5734 53.6417 67.4269 49.88 61.8337C48.0019 59.0412 46.5289 56.1655 45.804 53.5151C45.0776 50.8594 45.1189 48.4966 46.1676 46.6597C47.2163 44.8228 49.2299 43.5861 51.8862 42.8615C54.5371 42.1384 57.7622 41.9449 61.1218 42.1426C67.8506 42.5386 74.9813 44.4938 78.8936 46.7274C86.6475 51.1542 89.3448 61.0286 84.918 68.7825C80.4912 76.5365 70.6168 79.2337 62.8628 74.8069Z" fill="#B0E78E" stroke="#9FD77C"/>
<path d="M53.3885 62.7847C48.3892 59.9306 61.6129 62.1064 64.4671 57.107C67.3213 52.1076 58.725 41.8263 63.7244 44.6804C68.7238 47.5346 70.4628 53.9011 67.6086 58.9005C64.7544 63.8999 58.3879 65.6389 53.3885 62.7847Z" fill="#D7F9C2"/>
<path d="M70.4014 25.8242C69.0862 30.133 65.2381 36.4466 60.613 41.3499C58.3038 43.798 55.824 45.8692 53.3989 47.1611C50.969 48.4557 48.6554 48.9368 46.6323 48.3193C44.6093 47.7018 42.9587 46.0107 41.6658 43.5799C40.3755 41.1539 39.4751 38.0509 38.9265 34.7306C37.8279 28.0803 38.1614 20.6939 39.4765 16.3851C42.0831 7.84546 51.1189 3.03571 59.6585 5.64225C68.1982 8.24879 73.0079 17.2846 70.4014 25.8242Z" fill="#B0E78E" stroke="#9FD77C"/>
<path d="M60.7663 37.718C59.0858 43.2239 58.2898 29.846 52.7838 28.1655C47.2778 26.4849 39.1469 37.1381 40.8275 31.6321C42.5081 26.1261 48.3339 23.025 53.8399 24.7056C59.3458 26.3862 62.4469 32.212 60.7663 37.718Z" fill="#D7F9C2"/>
</svg>
